<svg xmlns="http://www.w3.org/2000/svg" width="1200" height="300" viewBox="0 0 1200 300" role="img" aria-labelledby="title description">
  <title id="title">Muhammad Shahzaib</title>
  <desc id="description">Full Stack Developer | MERN &amp; Agentic AI</desc>
  <defs>
    <linearGradient id="ocean" x1="0" y1="0" x2="1" y2="1">
      <stop offset="0" stop-color="#061A2B" />
      <stop offset="0.58" stop-color="#0B4F6C" />
      <stop offset="1" stop-color="#087E9B" />
    </linearGradient>
    <radialGradient id="light" cx="0.82" cy="0.16" r="0.78">
      <stop offset="0" stop-color="#48CAE4" stop-opacity="0.32" />
      <stop offset="1" stop-color="#48CAE4" stop-opacity="0" />
    </radialGradient>
  </defs>
  <rect width="1200" height="300" rx="28" fill="url(#ocean)" />
  <rect width="1200" height="300" rx="28" fill="url(#light)" />
  <g fill="none" stroke="#ADE8F4" stroke-opacity="0.15">
    <path d="M0 218C174 174 264 269 438 222s264-47 438 0 216 47 324 0" />
    <path d="M0 244c174-44 264 51 438 4s264-47 438 0 216 47 324 0" />
    <path d="M0 270c174-44 264 51 438 4s264-47 438 0 216 47 324 0" />
  </g>
  <circle cx="1040" cy="82" r="3" fill="#ADE8F4" fill-opacity="0.8" />
  <circle cx="1080" cy="112" r="2" fill="#ADE8F4" fill-opacity="0.58" />
  <circle cx="1000" cy="132" r="2" fill="#ADE8F4" fill-opacity="0.48" />
  <text x="78" y="133" fill="#E6FAFF" font-family="Inter,Segoe UI,Arial,sans-serif" font-size="58" font-weight="700" letter-spacing="-1.8">Muhammad Shahzaib</text>
  <text x="82" y="178" fill="#ADE8F4" font-family="Inter,Segoe UI,Arial,sans-serif" font-size="19" font-weight="500" letter-spacing="2">FULL STACK DEVELOPER | MERN &amp; AGENTIC AI</text>
  <text x="82" y="226" fill="#E6FAFF" fill-opacity="0.76" font-family="Consolas,monospace" font-size="13" letter-spacing="1.3">MULTAN, PAKISTAN  /  MERN + TYPESCRIPT  /  AGENTIC AI</text>
</svg>
